<mxfile host="65bd71144e">
    <diagram name="페이지-1" id="1zRKgmUaXTxRe6Tk9ieO">
        <mxGraphModel dx="1038" dy="547" grid="1" gridSize="10" guides="1" tooltips="1" connect="1" arrows="1" fold="1" page="1" pageScale="1" pageWidth="827" pageHeight="1169" math="0" shadow="0">
            <root>
                <mxCell id="0"/>
                <mxCell id="1" parent="0"/>
                <mxCell id="HX1PcJEUQ6J4BHZRip1N-5" value="User Client" style="fillColor=#EFF0F3;strokeColor=none;dashed=0;verticalAlign=top;fontStyle=0;fontColor=#232F3D;whiteSpace=wrap;html=1;" parent="1" vertex="1">
                    <mxGeometry x="40" y="40" width="320" height="120" as="geometry"/>
                </mxCell>
                <mxCell id="HX1PcJEUQ6J4BHZRip1N-1" value="DNS" style="fillColor=#EFF0F3;strokeColor=none;dashed=0;verticalAlign=top;fontStyle=0;fontColor=#232F3D;whiteSpace=wrap;html=1;" parent="1" vertex="1">
                    <mxGeometry x="520" y="40" width="200" height="80" as="geometry"/>
                </mxCell>
                <mxCell id="HX1PcJEUQ6J4BHZRip1N-2" value="" style="image;sketch=0;aspect=fixed;html=1;points=[];align=center;fontSize=12;image=img/lib/mscae/DNS.svg;" parent="1" vertex="1">
                    <mxGeometry x="595" y="64" width="50" height="50" as="geometry"/>
                </mxCell>
                <mxCell id="HX1PcJEUQ6J4BHZRip1N-3" value="" style="sketch=0;outlineConnect=0;fontColor=#232F3E;gradientColor=none;fillColor=#232F3D;strokeColor=none;dashed=0;verticalLabelPosition=bottom;verticalAlign=top;align=center;html=1;fontSize=12;fontStyle=0;aspect=fixed;pointerEvents=1;shape=mxgraph.aws4.mobile_client;" parent="1" vertex="1">
                    <mxGeometry x="250" y="66" width="41" height="78" as="geometry"/>
                </mxCell>
                <mxCell id="HX1PcJEUQ6J4BHZRip1N-4" value="" style="sketch=0;outlineConnect=0;fontColor=#232F3E;gradientColor=none;fillColor=#232F3D;strokeColor=none;dashed=0;verticalLabelPosition=bottom;verticalAlign=top;align=center;html=1;fontSize=12;fontStyle=0;aspect=fixed;pointerEvents=1;shape=mxgraph.aws4.client;" parent="1" vertex="1">
                    <mxGeometry x="100" y="68" width="78" height="76" as="geometry"/>
                </mxCell>
                <mxCell id="HX1PcJEUQ6J4BHZRip1N-6" value="AWS Cloud" style="points=[[0,0],[0.25,0],[0.5,0],[0.75,0],[1,0],[1,0.25],[1,0.5],[1,0.75],[1,1],[0.75,1],[0.5,1],[0.25,1],[0,1],[0,0.75],[0,0.5],[0,0.25]];outlineConnect=0;gradientColor=none;html=1;whiteSpace=wrap;fontSize=12;fontStyle=0;container=1;pointerEvents=0;collapsible=0;recursiveResize=0;shape=mxgraph.aws4.group;grIcon=mxgraph.aws4.group_aws_cloud;strokeColor=#232F3E;fillColor=none;verticalAlign=top;align=left;spacingLeft=30;fontColor=#232F3E;dashed=0;" parent="1" vertex="1">
                    <mxGeometry x="40" y="239" width="680" height="491" as="geometry"/>
                </mxCell>
                <mxCell id="HX1PcJEUQ6J4BHZRip1N-8" value="Region" style="points=[[0,0],[0.25,0],[0.5,0],[0.75,0],[1,0],[1,0.25],[1,0.5],[1,0.75],[1,1],[0.75,1],[0.5,1],[0.25,1],[0,1],[0,0.75],[0,0.5],[0,0.25]];outlineConnect=0;gradientColor=none;html=1;whiteSpace=wrap;fontSize=12;fontStyle=0;container=1;pointerEvents=0;collapsible=0;recursiveResize=0;shape=mxgraph.aws4.group;grIcon=mxgraph.aws4.group_region;strokeColor=#00A4A6;fillColor=none;verticalAlign=top;align=left;spacingLeft=30;fontColor=#147EBA;dashed=1;" parent="HX1PcJEUQ6J4BHZRip1N-6" vertex="1">
                    <mxGeometry x="20" y="30" width="640" height="440" as="geometry"/>
                </mxCell>
                <mxCell id="HX1PcJEUQ6J4BHZRip1N-9" value="EC2 instance contents" style="points=[[0,0],[0.25,0],[0.5,0],[0.75,0],[1,0],[1,0.25],[1,0.5],[1,0.75],[1,1],[0.75,1],[0.5,1],[0.25,1],[0,1],[0,0.75],[0,0.5],[0,0.25]];outlineConnect=0;gradientColor=none;html=1;whiteSpace=wrap;fontSize=12;fontStyle=0;container=1;pointerEvents=0;collapsible=0;recursiveResize=0;shape=mxgraph.aws4.group;grIcon=mxgraph.aws4.group_ec2_instance_contents;strokeColor=#D86613;fillColor=none;verticalAlign=top;align=left;spacingLeft=30;fontColor=#D86613;dashed=0;" parent="HX1PcJEUQ6J4BHZRip1N-8" vertex="1">
                    <mxGeometry x="22" y="136" width="100" height="130" as="geometry"/>
                </mxCell>
                <mxCell id="3" value="Server" style="sketch=0;outlineConnect=0;fontColor=#232F3E;gradientColor=none;fillColor=#D45B07;strokeColor=none;dashed=0;verticalLabelPosition=bottom;verticalAlign=top;align=center;html=1;fontSize=12;fontStyle=0;aspect=fixed;pointerEvents=1;shape=mxgraph.aws4.instance2;" parent="HX1PcJEUQ6J4BHZRip1N-9" vertex="1">
                    <mxGeometry x="26.000000000000014" y="61" width="48" height="48" as="geometry"/>
                </mxCell>
                <mxCell id="HX1PcJEUQ6J4BHZRip1N-18" value="&lt;div style=&quot;&quot;&gt;&lt;span style=&quot;background-color: initial;&quot;&gt;&amp;nbsp; &amp;nbsp; &amp;nbsp; &amp;nbsp; &amp;nbsp; Database&lt;/span&gt;&lt;/div&gt;" style="fillColor=none;strokeColor=#FF33FF;verticalAlign=top;fontStyle=0;fontColor=#5A6C86;whiteSpace=wrap;html=1;align=left;" parent="HX1PcJEUQ6J4BHZRip1N-8" vertex="1">
                    <mxGeometry x="370" y="40" width="240" height="130" as="geometry"/>
                </mxCell>
                <mxCell id="HX1PcJEUQ6J4BHZRip1N-19" value="" style="sketch=0;points=[[0,0,0],[0.25,0,0],[0.5,0,0],[0.75,0,0],[1,0,0],[0,1,0],[0.25,1,0],[0.5,1,0],[0.75,1,0],[1,1,0],[0,0.25,0],[0,0.5,0],[0,0.75,0],[1,0.25,0],[1,0.5,0],[1,0.75,0]];outlineConnect=0;fontColor=#232F3E;fillColor=#C925D1;strokeColor=#ffffff;dashed=0;verticalLabelPosition=bottom;verticalAlign=top;align=center;html=1;fontSize=12;fontStyle=0;aspect=fixed;shape=mxgraph.aws4.resourceIcon;resIcon=mxgraph.aws4.database;" parent="HX1PcJEUQ6J4BHZRip1N-8" vertex="1">
                    <mxGeometry x="370" y="40" width="30" height="30" as="geometry"/>
                </mxCell>
                <mxCell id="HX1PcJEUQ6J4BHZRip1N-21" value="Master" style="sketch=0;outlineConnect=0;fontColor=#232F3E;gradientColor=none;fillColor=#C925D1;strokeColor=none;dashed=0;verticalLabelPosition=top;verticalAlign=bottom;align=center;html=1;fontSize=12;fontStyle=0;aspect=fixed;pointerEvents=1;shape=mxgraph.aws4.rds_postgresql_instance;labelPosition=center;" parent="HX1PcJEUQ6J4BHZRip1N-8" vertex="1">
                    <mxGeometry x="403" y="82" width="54" height="54" as="geometry"/>
                </mxCell>
                <mxCell id="2" value="Load Balancer" style="outlineConnect=0;dashed=0;verticalLabelPosition=bottom;verticalAlign=top;align=center;html=1;shape=mxgraph.aws3.application_load_balancer;fillColor=#F58534;gradientColor=none;" parent="HX1PcJEUQ6J4BHZRip1N-8" vertex="1">
                    <mxGeometry x="115.08000000000001" y="10" width="49.83" height="52" as="geometry"/>
                </mxCell>
                <mxCell id="4" value="EC2 instance contents" style="points=[[0,0],[0.25,0],[0.5,0],[0.75,0],[1,0],[1,0.25],[1,0.5],[1,0.75],[1,1],[0.75,1],[0.5,1],[0.25,1],[0,1],[0,0.75],[0,0.5],[0,0.25]];outlineConnect=0;gradientColor=none;html=1;whiteSpace=wrap;fontSize=12;fontStyle=0;container=1;pointerEvents=0;collapsible=0;recursiveResize=0;shape=mxgraph.aws4.group;grIcon=mxgraph.aws4.group_ec2_instance_contents;strokeColor=#D86613;fillColor=none;verticalAlign=top;align=left;spacingLeft=30;fontColor=#D86613;dashed=0;" parent="HX1PcJEUQ6J4BHZRip1N-8" vertex="1">
                    <mxGeometry x="160.91" y="135" width="100" height="130" as="geometry"/>
                </mxCell>
                <mxCell id="5" value="Server" style="sketch=0;outlineConnect=0;fontColor=#232F3E;gradientColor=none;fillColor=#D45B07;strokeColor=none;dashed=0;verticalLabelPosition=bottom;verticalAlign=top;align=center;html=1;fontSize=12;fontStyle=0;aspect=fixed;pointerEvents=1;shape=mxgraph.aws4.instance2;" parent="4" vertex="1">
                    <mxGeometry x="26.000000000000014" y="61" width="48" height="48" as="geometry"/>
                </mxCell>
                <mxCell id="6" value="" style="edgeStyle=orthogonalEdgeStyle;html=1;endArrow=block;elbow=vertical;startArrow=block;startFill=1;endFill=1;strokeColor=#545B64;rounded=0;exitX=0;exitY=0.5;exitDx=0;exitDy=0;entryX=0.5;entryY=0;entryDx=0;entryDy=0;exitPerimeter=0;" parent="HX1PcJEUQ6J4BHZRip1N-8" source="2" target="HX1PcJEUQ6J4BHZRip1N-9" edge="1">
                    <mxGeometry width="100" relative="1" as="geometry">
                        <mxPoint x="150" y="-70" as="sourcePoint"/>
                        <mxPoint x="149.9949999999999" y="20" as="targetPoint"/>
                    </mxGeometry>
                </mxCell>
                <mxCell id="7" value="" style="edgeStyle=orthogonalEdgeStyle;html=1;endArrow=block;elbow=vertical;startArrow=block;startFill=1;endFill=1;strokeColor=#545B64;rounded=0;exitX=0.5;exitY=0;exitDx=0;exitDy=0;entryX=1;entryY=0.5;entryDx=0;entryDy=0;entryPerimeter=0;" parent="HX1PcJEUQ6J4BHZRip1N-8" source="4" target="2" edge="1">
                    <mxGeometry width="100" relative="1" as="geometry">
                        <mxPoint x="125.07999999999993" y="46" as="sourcePoint"/>
                        <mxPoint x="82" y="92" as="targetPoint"/>
                    </mxGeometry>
                </mxCell>
                <mxCell id="10" value="Slave" style="sketch=0;outlineConnect=0;fontColor=#232F3E;gradientColor=none;fillColor=#C925D1;strokeColor=none;dashed=0;verticalLabelPosition=top;verticalAlign=bottom;align=center;html=1;fontSize=12;fontStyle=0;aspect=fixed;pointerEvents=1;shape=mxgraph.aws4.rds_postgresql_instance;labelPosition=center;" parent="HX1PcJEUQ6J4BHZRip1N-8" vertex="1">
                    <mxGeometry x="523" y="82" width="54" height="54" as="geometry"/>
                </mxCell>
                <mxCell id="12" value="Sync" style="edgeStyle=orthogonalEdgeStyle;html=1;endArrow=block;elbow=vertical;startArrow=block;startFill=1;endFill=1;strokeColor=#545B64;rounded=0;" parent="HX1PcJEUQ6J4BHZRip1N-8" source="HX1PcJEUQ6J4BHZRip1N-21" target="10" edge="1">
                    <mxGeometry width="100" relative="1" as="geometry">
                        <mxPoint x="250" y="70" as="sourcePoint"/>
                        <mxPoint x="350" y="70" as="targetPoint"/>
                    </mxGeometry>
                </mxCell>
                <mxCell id="14" value="" style="html=1;endArrow=block;elbow=vertical;startArrow=none;endFill=1;strokeColor=#545B64;rounded=0;exitX=0.25;exitY=1;exitDx=0;exitDy=0;" parent="HX1PcJEUQ6J4BHZRip1N-8" source="HX1PcJEUQ6J4BHZRip1N-18" edge="1">
                    <mxGeometry width="100" relative="1" as="geometry">
                        <mxPoint x="250" y="70" as="sourcePoint"/>
                        <mxPoint x="550" y="140" as="targetPoint"/>
                    </mxGeometry>
                </mxCell>
                <mxCell id="16" value="Write" style="edgeStyle=orthogonalEdgeStyle;html=1;endArrow=block;elbow=vertical;startArrow=none;endFill=1;strokeColor=#545B64;rounded=0;exitX=0.25;exitY=1;exitDx=0;exitDy=0;" parent="HX1PcJEUQ6J4BHZRip1N-8" source="HX1PcJEUQ6J4BHZRip1N-18" edge="1">
                    <mxGeometry width="100" relative="1" as="geometry">
                        <mxPoint x="250" y="70" as="sourcePoint"/>
                        <mxPoint x="430" y="140" as="targetPoint"/>
                        <Array as="points">
                            <mxPoint x="430" y="140"/>
                            <mxPoint x="430" y="140"/>
                        </Array>
                    </mxGeometry>
                </mxCell>
                <mxCell id="32" value="Redis Cache" style="sketch=0;points=[[0,0,0],[0.25,0,0],[0.5,0,0],[0.75,0,0],[1,0,0],[0,1,0],[0.25,1,0],[0.5,1,0],[0.75,1,0],[1,1,0],[0,0.25,0],[0,0.5,0],[0,0.75,0],[1,0.25,0],[1,0.5,0],[1,0.75,0]];outlineConnect=0;fontColor=#232F3E;gradientColor=#4D72F3;gradientDirection=north;fillColor=#3334B9;strokeColor=#ffffff;dashed=0;verticalLabelPosition=bottom;verticalAlign=top;align=center;html=1;fontSize=12;fontStyle=0;aspect=fixed;shape=mxgraph.aws4.resourceIcon;resIcon=mxgraph.aws4.memorydb_for_redis;" parent="HX1PcJEUQ6J4BHZRip1N-8" vertex="1">
                    <mxGeometry x="124" y="345" width="49" height="49" as="geometry"/>
                </mxCell>
                <mxCell id="36" value="2" style="ellipse;whiteSpace=wrap;html=1;aspect=fixed;strokeWidth=2;fontFamily=Tahoma;spacingBottom=4;spacingRight=2;strokeColor=#d79b00;fillColor=#ffe6cc;fontStyle=1" parent="HX1PcJEUQ6J4BHZRip1N-8" vertex="1">
                    <mxGeometry x="115.08" y="306" width="20" height="20" as="geometry"/>
                </mxCell>
                <mxCell id="HX1PcJEUQ6J4BHZRip1N-12" value="Domina to IP" style="edgeStyle=orthogonalEdgeStyle;html=1;endArrow=block;elbow=vertical;startArrow=block;startFill=1;endFill=1;strokeColor=#545B64;rounded=0;exitX=1;exitY=0.5;exitDx=0;exitDy=0;entryX=0;entryY=0.5;entryDx=0;entryDy=0;" parent="1" source="HX1PcJEUQ6J4BHZRip1N-5" target="HX1PcJEUQ6J4BHZRip1N-1" edge="1">
                    <mxGeometry width="100" relative="1" as="geometry">
                        <mxPoint x="500" y="220" as="sourcePoint"/>
                        <mxPoint x="600" y="220" as="targetPoint"/>
                    </mxGeometry>
                </mxCell>
                <mxCell id="HX1PcJEUQ6J4BHZRip1N-13" value="" style="edgeStyle=orthogonalEdgeStyle;html=1;endArrow=block;elbow=vertical;startArrow=block;startFill=1;endFill=1;strokeColor=#545B64;rounded=0;exitX=0.5;exitY=1;exitDx=0;exitDy=0;entryX=0.5;entryY=0;entryDx=0;entryDy=0;entryPerimeter=0;" parent="1" source="HX1PcJEUQ6J4BHZRip1N-5" target="2" edge="1">
                    <mxGeometry width="100" relative="1" as="geometry">
                        <mxPoint x="470" y="270" as="sourcePoint"/>
                        <mxPoint x="570" y="270" as="targetPoint"/>
                    </mxGeometry>
                </mxCell>
                <mxCell id="37" value="HTTP / REST API" style="edgeLabel;html=1;align=center;verticalAlign=middle;resizable=0;points=[];" parent="HX1PcJEUQ6J4BHZRip1N-13" vertex="1" connectable="0">
                    <mxGeometry x="-0.2605" y="-2" relative="1" as="geometry">
                        <mxPoint as="offset"/>
                    </mxGeometry>
                </mxCell>
                <mxCell id="HX1PcJEUQ6J4BHZRip1N-14" value="1" style="ellipse;whiteSpace=wrap;html=1;aspect=fixed;strokeWidth=2;fontFamily=Tahoma;spacingBottom=4;spacingRight=2;strokeColor=#d79b00;fillColor=#ffe6cc;fontStyle=1" parent="1" vertex="1">
                    <mxGeometry x="450" y="140" width="20" height="20" as="geometry"/>
                </mxCell>
                <mxCell id="17" value="" style="html=1;endArrow=block;elbow=vertical;startArrow=none;endFill=1;strokeColor=#545B64;rounded=0;exitX=0.75;exitY=1;exitDx=0;exitDy=0;" parent="1" source="HX1PcJEUQ6J4BHZRip1N-18" edge="1">
                    <mxGeometry width="100" relative="1" as="geometry">
                        <mxPoint x="500" y="448.9999999999999" as="sourcePoint"/>
                        <mxPoint x="490" y="409" as="targetPoint"/>
                    </mxGeometry>
                </mxCell>
                <mxCell id="18" value="Read" style="html=1;endArrow=block;elbow=vertical;startArrow=none;endFill=1;strokeColor=#545B64;rounded=0;" parent="1" edge="1">
                    <mxGeometry width="100" relative="1" as="geometry">
                        <mxPoint x="610" y="439" as="sourcePoint"/>
                        <mxPoint x="610" y="409" as="targetPoint"/>
                    </mxGeometry>
                </mxCell>
                <mxCell id="27" value="CDN" style="fillColor=#EFF0F3;strokeColor=none;dashed=0;verticalAlign=top;fontStyle=0;fontColor=#232F3D;whiteSpace=wrap;html=1;" parent="1" vertex="1">
                    <mxGeometry x="520" y="130" width="200" height="80" as="geometry"/>
                </mxCell>
                <mxCell id="31" value="" style="aspect=fixed;html=1;points=[];align=center;image;fontSize=12;image=img/lib/azure2/networking/CDN_Profiles.svg;" parent="1" vertex="1">
                    <mxGeometry x="586" y="160" width="68" height="40" as="geometry"/>
                </mxCell>
                <mxCell id="35" value="" style="edgeStyle=orthogonalEdgeStyle;html=1;endArrow=block;elbow=vertical;startArrow=block;startFill=1;endFill=1;strokeColor=#545B64;rounded=0;exitX=1;exitY=0.5;exitDx=0;exitDy=0;entryX=0;entryY=0.5;entryDx=0;entryDy=0;" parent="1" source="HX1PcJEUQ6J4BHZRip1N-5" target="27" edge="1">
                    <mxGeometry width="100" relative="1" as="geometry">
                        <mxPoint x="370" y="110" as="sourcePoint"/>
                        <mxPoint x="530" y="90" as="targetPoint"/>
                    </mxGeometry>
                </mxCell>
                <mxCell id="38" value="Server contents" style="points=[[0,0],[0.25,0],[0.5,0],[0.75,0],[1,0],[1,0.25],[1,0.5],[1,0.75],[1,1],[0.75,1],[0.5,1],[0.25,1],[0,1],[0,0.75],[0,0.5],[0,0.25]];outlineConnect=0;gradientColor=none;html=1;whiteSpace=wrap;fontSize=12;fontStyle=0;container=1;pointerEvents=0;collapsible=0;recursiveResize=0;shape=mxgraph.aws4.group;grIcon=mxgraph.aws4.group_on_premise;strokeColor=#5A6C86;fillColor=none;verticalAlign=top;align=left;spacingLeft=30;fontColor=#5A6C86;dashed=0;" parent="1" vertex="1">
                    <mxGeometry x="67" y="362" width="283" height="190" as="geometry"/>
                </mxCell>
                <mxCell id="9" value="Query" style="edgeStyle=orthogonalEdgeStyle;html=1;endArrow=block;elbow=vertical;startArrow=block;startFill=1;endFill=1;strokeColor=#545B64;rounded=0;exitX=1;exitY=0.5;exitDx=0;exitDy=0;entryX=0.5;entryY=1;entryDx=0;entryDy=0;" parent="1" source="38" target="HX1PcJEUQ6J4BHZRip1N-18" edge="1">
                    <mxGeometry x="-0.0003" width="100" relative="1" as="geometry">
                        <mxPoint x="142" y="491" as="sourcePoint"/>
                        <mxPoint x="569.1199999999999" y="449" as="targetPoint"/>
                        <Array as="points">
                            <mxPoint x="390" y="457"/>
                            <mxPoint x="390" y="520"/>
                            <mxPoint x="550" y="520"/>
                        </Array>
                        <mxPoint as="offset"/>
                    </mxGeometry>
                </mxCell>
                <mxCell id="34" value="" style="edgeStyle=orthogonalEdgeStyle;html=1;endArrow=block;elbow=vertical;startArrow=block;startFill=1;endFill=1;strokeColor=#545B64;rounded=0;exitX=0.5;exitY=1;exitDx=0;exitDy=0;entryX=0.5;entryY=0;entryDx=0;entryDy=0;entryPerimeter=0;" parent="1" source="38" target="32" edge="1">
                    <mxGeometry width="100" relative="1" as="geometry">
                        <mxPoint x="142" y="491" as="sourcePoint"/>
                        <mxPoint x="192" y="570.5" as="targetPoint"/>
                    </mxGeometry>
                </mxCell>
                <mxCell id="39" value="" style="rounded=0;whiteSpace=wrap;html=1;fillColor=none;" vertex="1" parent="1">
                    <mxGeometry x="19" y="20" width="731" height="740" as="geometry"/>
                </mxCell>
            </root>
        </mxGraphModel>
    </diagram>
</mxfile>